<svg width="25" height="25" viewBox="0 0 25 25" fill="none" xmlns="http://www.w3.org/2000/svg">
<path d="M12.5 1.04167C14.9864 1.04167 17.371 2.02939 19.1291 3.78754C20.8873 5.5457 21.875 7.93026 21.875 10.4167C21.875 14.2979 18.9167 18.3646 13.125 22.7083C12.9447 22.8436 12.7254 22.9167 12.5 22.9167C12.2746 22.9167 12.0553 22.8436 11.875 22.7083C6.08333 18.3646 3.125 14.2979 3.125 10.4167C3.125 7.93026 4.11272 5.5457 5.87087 3.78754C7.62903 2.02939 10.0136 1.04167 12.5 1.04167ZM12.5 7.29167C11.6712 7.29167 10.8763 7.62091 10.2903 8.20696C9.70424 8.79301 9.375 9.58787 9.375 10.4167C9.375 11.2455 9.70424 12.0403 10.2903 12.6264C10.8763 13.2124 11.6712 13.5417 12.5 13.5417C13.3288 13.5417 14.1237 13.2124 14.7097 12.6264C15.2958 12.0403 15.625 11.2455 15.625 10.4167C15.625 9.58787 15.2958 8.79301 14.7097 8.20696C14.1237 7.62091 13.3288 7.29167 12.5 7.29167Z" fill="#4C40ED"/>
</svg>
