<svg width="25" height="25" viewBox="0 0 25 25" fill="none" xmlns="http://www.w3.org/2000/svg">
<path d="M12.5 20.8333C14.7101 20.8333 16.8298 19.9554 18.3926 18.3926C19.9554 16.8298 20.8333 14.7101 20.8333 12.5C20.8333 10.2899 19.9554 8.17025 18.3926 6.60745C16.8298 5.04464 14.7101 4.16667 12.5 4.16667C10.2899 4.16667 8.17025 5.04464 6.60745 6.60745C5.04464 8.17025 4.16667 10.2899 4.16667 12.5C4.16667 14.7101 5.04464 16.8298 6.60745 18.3926C8.17025 19.9554 10.2899 20.8333 12.5 20.8333ZM12.5 2.08334C13.8679 2.08334 15.2225 2.35277 16.4863 2.87626C17.7501 3.39974 18.8984 4.16703 19.8657 5.13431C20.833 6.10158 21.6003 7.24991 22.1237 8.51372C22.6472 9.77752 22.9167 11.1321 22.9167 12.5C22.9167 15.2627 21.8192 17.9122 19.8657 19.8657C17.9122 21.8192 15.2627 22.9167 12.5 22.9167C6.73959 22.9167 2.08334 18.2292 2.08334 12.5C2.08334 9.73733 3.1808 7.08781 5.13431 5.13431C7.08781 3.1808 9.73733 2.08334 12.5 2.08334ZM13.0208 7.29167V12.7604L17.7083 15.5417L16.9271 16.8229L11.4583 13.5417V7.29167H13.0208Z" fill="#4C40ED"/>
</svg>
