<svg width="25" height="25" viewBox="0 0 25 25" fill="none" xmlns="http://www.w3.org/2000/svg">
<path d="M2.08333 20.8333V19.7917C2.08333 17.8578 2.85156 16.0031 4.21901 14.6357C5.58646 13.2682 7.44112 12.5 9.37499 12.5" stroke="#4C40ED" stroke-width="1.5625" stroke-linecap="round" stroke-linejoin="round"/>
<path d="M16.4625 12.826C16.6204 12.6527 16.8128 12.5142 17.0274 12.4195C17.2419 12.3247 17.4738 12.2758 17.7083 12.2758C17.9428 12.2758 18.1748 12.3247 18.3893 12.4195C18.6038 12.5142 18.7962 12.6527 18.9542 12.826C19.2927 13.1979 19.7771 13.399 20.2792 13.375C20.5135 13.364 20.7476 13.4021 20.9664 13.4868C21.1852 13.5714 21.384 13.7009 21.5499 13.8668C21.7158 14.0327 21.8452 14.2314 21.9299 14.4502C22.0146 14.669 22.0527 14.9031 22.0417 15.1375C22.0177 15.6385 22.2187 16.124 22.5896 16.4625C23.324 17.1312 23.324 18.2854 22.5896 18.9542C22.2187 19.2927 22.0177 19.7771 22.0417 20.2792C22.0527 20.5135 22.0146 20.7476 21.9299 20.9664C21.8452 21.1852 21.7158 21.384 21.5499 21.5499C21.384 21.7158 21.1852 21.8452 20.9664 21.9299C20.7476 22.0146 20.5135 22.0527 20.2792 22.0417C20.0316 22.03 19.7845 22.073 19.5555 22.1677C19.3265 22.2624 19.1212 22.4065 18.9542 22.5896C18.7962 22.7629 18.6038 22.9014 18.3893 22.9962C18.1748 23.0909 17.9428 23.1399 17.7083 23.1399C17.4738 23.1399 17.2419 23.0909 17.0274 22.9962C16.8128 22.9014 16.6204 22.7629 16.4625 22.5896C16.2955 22.4065 16.0902 22.2624 15.8612 22.1677C15.6321 22.073 15.3851 22.03 15.1375 22.0417C14.9031 22.0527 14.669 22.0146 14.4502 21.9299C14.2314 21.8452 14.0327 21.7158 13.8668 21.5499C13.7009 21.384 13.5714 21.1852 13.4868 20.9664C13.4021 20.7476 13.364 20.5135 13.375 20.2792C13.3866 20.0315 13.3434 19.7844 13.2485 19.5554C13.1536 19.3263 13.0094 19.1211 12.826 18.9542C12.6527 18.7962 12.5142 18.6038 12.4195 18.3893C12.3247 18.1748 12.2758 17.9428 12.2758 17.7083C12.2758 17.4738 12.3247 17.2419 12.4195 17.0274C12.5142 16.8128 12.6527 16.6204 12.826 16.4625C13.1979 16.124 13.399 15.6396 13.375 15.1375C13.364 14.9031 13.4021 14.669 13.4868 14.4502C13.5714 14.2314 13.7009 14.0327 13.8668 13.8668C14.0327 13.7009 14.2314 13.5714 14.4502 13.4868C14.669 13.4021 14.9031 13.364 15.1375 13.375C15.6385 13.399 16.124 13.1979 16.4625 12.826Z" stroke="#4C40ED" stroke-width="1.5625"/>
<path d="M16.0042 17.7083L17.1396 18.8438L19.4125 16.5729M9.37499 12.5C10.4801 12.5 11.5399 12.061 12.3213 11.2796C13.1027 10.4982 13.5417 9.43841 13.5417 8.33334C13.5417 7.22827 13.1027 6.16846 12.3213 5.38706C11.5399 4.60566 10.4801 4.16667 9.37499 4.16667C8.26993 4.16667 7.21012 4.60566 6.42872 5.38706C5.64731 6.16846 5.20833 7.22827 5.20833 8.33334C5.20833 9.43841 5.64731 10.4982 6.42872 11.2796C7.21012 12.061 8.26993 12.5 9.37499 12.5Z" stroke="#4C40ED" stroke-width="1.5625" stroke-linecap="round" stroke-linejoin="round"/>
</svg>
