<svg width="1521" height="391" viewBox="0 0 1521 391" fill="none" xmlns="http://www.w3.org/2000/svg">
<g clip-path="url(#clip0_1_2)">
<rect width="1521" height="391" fill="white"/>
<path d="M54.1667 182.058C54.1667 181.049 54.1667 180.545 54.3883 180.114C54.61 179.683 55.0206 179.39 55.8417 178.804L198.838 76.6637C199.399 76.2627 199.68 76.0622 200 76.0622C200.32 76.0622 200.601 76.2627 201.162 76.6637L344.158 178.804C344.979 179.39 345.39 179.683 345.612 180.114C345.833 180.545 345.833 181.049 345.833 182.058V365.5C345.833 366.443 345.833 366.914 345.54 367.207C345.248 367.5 344.776 367.5 343.833 367.5H56.1667C55.2239 367.5 54.7525 367.5 54.4596 367.207C54.1667 366.914 54.1667 366.443 54.1667 365.5V182.058Z" fill="url(#paint0_linear_1_2)" fill-opacity="0.927083"/>
<rect x="283.333" y="34.1667" width="41.6667" height="83.3333" rx="0.5" fill="#4C40EC" fill-opacity="0.927083"/>
<path d="M12.5 200.22C12.5 200.487 12.5 200.62 12.5841 200.661C12.6682 200.703 12.7735 200.621 12.9842 200.457L198.772 55.955C199.362 55.4963 199.657 55.2669 200 55.2669C200.343 55.2669 200.638 55.4963 201.228 55.955L387.016 200.457C387.227 200.621 387.332 200.703 387.416 200.661C387.5 200.62 387.5 200.487 387.5 200.22V160.145C387.5 159.665 387.5 159.424 387.398 159.216C387.297 159.008 387.107 158.861 386.728 158.566L201.228 14.2884C200.638 13.8296 200.343 13.6002 200 13.6002C199.657 13.6002 199.362 13.8296 198.772 14.2884L13.2721 158.566C12.893 158.861 12.7034 159.008 12.6017 159.216C12.5 159.424 12.5 159.665 12.5 160.145V200.22Z" fill="#4C40EC"/>
<g filter="url(#filter0_d_1_2)">
<path d="M213.115 325.083L167.71 249.463V296.362H180.991V325H127.368V296.362H140.649V221.489H127.368V192.852H186.719L232.29 268.472V221.489H219.009V192.852H272.632V221.489H259.351V325L213.115 325.083Z" fill="white"/>
</g>
<path d="M482.131 343H459.646L419.143 273.859V343H398.122V237.971H420.607L461.11 307.185V237.971H482.131V343ZM529.592 323.811C530.373 324.055 531.154 324.226 531.936 324.323C532.717 324.372 533.498 324.396 534.279 324.396C536.232 324.396 538.112 324.128 539.919 323.591C541.726 323.054 543.41 322.297 544.973 321.32C546.584 320.295 548 319.074 549.221 317.658C550.49 316.193 551.516 314.582 552.297 312.824L566.945 327.546C565.09 330.183 562.941 332.551 560.5 334.65C558.107 336.75 555.495 338.532 552.663 339.997C549.88 341.462 546.926 342.561 543.801 343.293C540.725 344.074 537.551 344.465 534.279 344.465C528.762 344.465 523.562 343.439 518.679 341.389C513.845 339.338 509.597 336.481 505.935 332.819C502.321 329.157 499.465 324.812 497.365 319.782C495.266 314.704 494.216 309.138 494.216 303.083C494.216 296.882 495.266 291.218 497.365 286.091C499.465 280.964 502.321 276.594 505.935 272.98C509.597 269.367 513.845 266.56 518.679 264.558C523.562 262.556 528.762 261.555 534.279 261.555C537.551 261.555 540.749 261.945 543.874 262.727C546.999 263.508 549.953 264.631 552.736 266.096C555.568 267.561 558.205 269.367 560.646 271.516C563.088 273.615 565.236 275.983 567.092 278.62L529.592 323.811ZM539.846 282.575C538.918 282.233 537.99 282.014 537.062 281.916C536.184 281.818 535.256 281.77 534.279 281.77C531.545 281.77 528.957 282.282 526.516 283.308C524.123 284.284 522.023 285.7 520.217 287.556C518.459 289.411 517.067 291.657 516.042 294.294C515.017 296.882 514.504 299.812 514.504 303.083C514.504 303.815 514.528 304.646 514.577 305.573C514.675 306.501 514.797 307.453 514.943 308.43C515.139 309.357 515.358 310.261 515.603 311.14C515.847 312.019 516.164 312.8 516.555 313.483L539.846 282.575ZM600.783 243.244C600.783 245.1 600.417 246.833 599.685 248.444C599.001 250.056 598.049 251.472 596.828 252.692C595.607 253.864 594.167 254.816 592.507 255.549C590.896 256.232 589.162 256.574 587.307 256.574C585.451 256.574 583.693 256.232 582.033 255.549C580.422 254.816 579.006 253.864 577.785 252.692C576.613 251.472 575.661 250.056 574.929 248.444C574.245 246.833 573.903 245.1 573.903 243.244C573.903 241.438 574.245 239.729 574.929 238.117C575.661 236.457 576.613 235.041 577.785 233.869C579.006 232.648 580.422 231.696 582.033 231.013C583.693 230.28 585.451 229.914 587.307 229.914C589.162 229.914 590.896 230.28 592.507 231.013C594.167 231.696 595.607 232.648 596.828 233.869C598.049 235.041 599.001 236.457 599.685 238.117C600.417 239.729 600.783 241.438 600.783 243.244ZM597.341 343H577.199V264.558H597.341V343ZM668.459 303.083C668.459 300.349 667.922 297.712 666.848 295.173C665.822 292.585 664.406 290.314 662.6 288.361C660.793 286.359 658.669 284.772 656.228 283.601C653.835 282.38 651.271 281.77 648.537 281.77C645.803 281.77 643.215 282.233 640.773 283.161C638.381 284.089 636.281 285.456 634.475 287.263C632.717 289.069 631.325 291.315 630.3 294.001C629.274 296.638 628.762 299.665 628.762 303.083C628.762 306.354 629.274 309.309 630.3 311.945C631.325 314.533 632.717 316.755 634.475 318.61C636.281 320.466 638.381 321.906 640.773 322.932C643.215 323.908 645.803 324.396 648.537 324.396C651.271 324.396 653.835 323.811 656.228 322.639C658.669 321.418 660.793 319.831 662.6 317.878C664.406 315.876 665.822 313.605 666.848 311.066C667.922 308.479 668.459 305.817 668.459 303.083ZM688.601 333.112C688.601 338.63 687.551 343.806 685.451 348.64C683.352 353.474 680.471 357.697 676.809 361.311C673.195 364.924 668.947 367.78 664.064 369.88C659.23 371.979 654.055 373.029 648.537 373.029L638.503 372.883V352.888L648.391 353.034C651.516 353.034 654.177 352.619 656.374 351.789C658.571 351.008 660.427 349.909 661.94 348.493C663.454 347.126 664.65 345.539 665.529 343.732C666.457 341.926 667.189 340.021 667.727 338.02C666.945 339.289 665.822 340.339 664.357 341.169C662.893 341.95 661.257 342.585 659.45 343.073C657.692 343.61 655.837 343.977 653.884 344.172C651.979 344.367 650.197 344.465 648.537 344.465C643.02 344.465 637.819 343.513 632.937 341.608C628.103 339.704 623.854 336.994 620.192 333.479C616.579 329.914 613.723 325.568 611.623 320.441C609.523 315.314 608.474 309.528 608.474 303.083C608.474 297.175 609.523 291.682 611.623 286.604C613.723 281.525 616.579 277.131 620.192 273.42C623.854 269.709 628.103 266.804 632.937 264.704C637.819 262.604 643.02 261.555 648.537 261.555C651.076 261.555 653.591 261.872 656.081 262.507C658.571 263.142 660.988 264.021 663.332 265.144C665.676 266.267 667.897 267.585 669.997 269.099C672.146 270.612 674.147 272.248 676.003 274.006L683.767 264.704H688.601V333.112ZM723.903 343H703.908V233.356H723.903V268C726.296 266.193 728.762 264.924 731.301 264.191C733.84 263.41 736.428 263.02 739.064 263.02C743.898 263.02 748.439 263.947 752.688 265.803C756.936 267.609 760.622 270.124 763.747 273.347C766.921 276.521 769.411 280.256 771.218 284.553C773.073 288.801 774.001 293.342 774.001 298.176V343H753.859V298.176H754.006C754.006 296.125 753.615 294.196 752.834 292.39C752.053 290.534 750.979 288.923 749.611 287.556C748.244 286.188 746.657 285.114 744.851 284.333C743.044 283.552 741.115 283.161 739.064 283.161C736.965 283.161 734.987 283.552 733.132 284.333C731.276 285.114 729.665 286.188 728.298 287.556C726.931 288.923 725.856 290.534 725.075 292.39C724.294 294.196 723.903 296.125 723.903 298.176V343ZM866.213 303.083C866.213 309.235 865.163 314.851 863.063 319.929C860.964 325.007 858.107 329.377 854.494 333.039C850.881 336.652 846.633 339.46 841.75 341.462C836.916 343.464 831.716 344.465 826.149 344.465C820.632 344.465 815.432 343.439 810.549 341.389C805.715 339.338 801.467 336.481 797.805 332.819C794.191 329.157 791.335 324.812 789.235 319.782C787.136 314.704 786.086 309.138 786.086 303.083V233.356H806.154V269.978C807.229 268.61 808.522 267.39 810.036 266.315C811.599 265.241 813.259 264.362 815.017 263.679C816.823 262.995 818.679 262.482 820.583 262.141C822.487 261.75 824.343 261.555 826.149 261.555C831.716 261.555 836.916 262.604 841.75 264.704C846.633 266.755 850.881 269.636 854.494 273.347C858.107 277.058 860.964 281.452 863.063 286.53C865.163 291.56 866.213 297.077 866.213 303.083ZM846.071 303.083C846.071 300.056 845.534 297.248 844.46 294.66C843.435 292.023 842.019 289.753 840.212 287.849C838.405 285.944 836.281 284.455 833.84 283.381C831.447 282.307 828.884 281.77 826.149 281.77C823.415 281.77 820.827 282.38 818.386 283.601C815.993 284.772 813.894 286.359 812.087 288.361C810.28 290.314 808.864 292.585 807.839 295.173C806.813 297.712 806.301 300.349 806.301 303.083C806.301 306.11 806.813 308.918 807.839 311.506C808.864 314.094 810.28 316.34 812.087 318.244C813.894 320.148 815.993 321.662 818.386 322.785C820.827 323.859 823.415 324.396 826.149 324.396C828.884 324.396 831.447 323.859 833.84 322.785C836.281 321.662 838.405 320.148 840.212 318.244C842.019 316.34 843.435 314.094 844.46 311.506C845.534 308.918 846.071 306.11 846.071 303.083ZM953.151 303.083C953.151 308.942 952.102 314.411 950.002 319.489C947.902 324.519 945.046 328.889 941.433 332.6C937.819 336.262 933.571 339.167 928.688 341.315C923.854 343.415 918.654 344.465 913.088 344.465C907.57 344.465 902.37 343.415 897.487 341.315C892.653 339.167 888.405 336.262 884.743 332.6C881.13 328.889 878.273 324.519 876.174 319.489C874.074 314.411 873.024 308.942 873.024 303.083C873.024 297.126 874.074 291.608 876.174 286.53C878.273 281.452 881.13 277.082 884.743 273.42C888.405 269.709 892.653 266.804 897.487 264.704C902.37 262.604 907.57 261.555 913.088 261.555C918.654 261.555 923.854 262.556 928.688 264.558C933.571 266.511 937.819 269.318 941.433 272.98C945.046 276.594 947.902 280.964 950.002 286.091C952.102 291.169 953.151 296.833 953.151 303.083ZM933.01 303.083C933.01 299.86 932.473 296.955 931.398 294.367C930.373 291.73 928.957 289.484 927.15 287.629C925.344 285.725 923.22 284.284 920.778 283.308C918.386 282.282 915.822 281.77 913.088 281.77C910.354 281.77 907.766 282.282 905.324 283.308C902.932 284.284 900.832 285.725 899.025 287.629C897.268 289.484 895.876 291.73 894.851 294.367C893.825 296.955 893.312 299.86 893.312 303.083C893.312 306.11 893.825 308.918 894.851 311.506C895.876 314.094 897.268 316.34 899.025 318.244C900.832 320.148 902.932 321.662 905.324 322.785C907.766 323.859 910.354 324.396 913.088 324.396C915.822 324.396 918.386 323.884 920.778 322.858C923.22 321.833 925.344 320.393 927.15 318.537C928.957 316.682 930.373 314.436 931.398 311.799C932.473 309.162 933.01 306.257 933.01 303.083ZM984.206 343H964.211V264.558H969.045L975.637 273.859C978.859 270.93 982.521 268.684 986.623 267.121C990.725 265.51 994.973 264.704 999.367 264.704H1017.02V284.626H999.367C997.268 284.626 995.29 285.017 993.435 285.798C991.579 286.579 989.968 287.653 988.601 289.021C987.233 290.388 986.159 291.999 985.378 293.854C984.597 295.71 984.206 297.688 984.206 299.787V343ZM1022.29 269.465C1022.29 265.119 1023.12 261.042 1024.78 257.233C1026.44 253.425 1028.69 250.104 1031.52 247.272C1034.4 244.392 1037.75 242.121 1041.55 240.461C1045.36 238.801 1049.44 237.971 1053.79 237.971H1101.98V258.991H1053.79C1052.32 258.991 1050.95 259.26 1049.68 259.797C1048.42 260.334 1047.29 261.091 1046.32 262.067C1045.39 262.995 1044.66 264.094 1044.12 265.363C1043.58 266.633 1043.31 268 1043.31 269.465C1043.31 270.93 1043.58 272.321 1044.12 273.64C1044.66 274.909 1045.39 276.032 1046.32 277.009C1047.29 277.937 1048.42 278.669 1049.68 279.206C1050.95 279.743 1052.32 280.012 1053.79 280.012H1074.81C1079.15 280.012 1083.23 280.842 1087.04 282.502C1090.9 284.113 1094.24 286.359 1097.07 289.24C1099.95 292.072 1102.2 295.417 1103.81 299.274C1105.47 303.083 1106.3 307.16 1106.3 311.506C1106.3 315.852 1105.47 319.929 1103.81 323.737C1102.2 327.546 1099.95 330.891 1097.07 333.771C1094.24 336.604 1090.9 338.85 1087.04 340.51C1083.23 342.17 1079.15 343 1074.81 343H1028.15V321.979H1074.81C1076.27 321.979 1077.64 321.711 1078.91 321.174C1080.18 320.637 1081.28 319.904 1082.2 318.977C1083.18 318 1083.94 316.877 1084.47 315.607C1085.01 314.338 1085.28 312.971 1085.28 311.506C1085.28 310.041 1085.01 308.674 1084.47 307.404C1083.94 306.135 1083.18 305.036 1082.2 304.108C1081.28 303.132 1080.18 302.375 1078.91 301.838C1077.64 301.301 1076.27 301.032 1074.81 301.032H1053.79C1049.44 301.032 1045.36 300.202 1041.55 298.542C1037.75 296.882 1034.4 294.636 1031.52 291.804C1028.69 288.923 1026.44 285.578 1024.78 281.77C1023.12 277.912 1022.29 273.811 1022.29 269.465ZM1149.22 323.811C1150 324.055 1150.78 324.226 1151.56 324.323C1152.35 324.372 1153.13 324.396 1153.91 324.396C1155.86 324.396 1157.74 324.128 1159.55 323.591C1161.35 323.054 1163.04 322.297 1164.6 321.32C1166.21 320.295 1167.63 319.074 1168.85 317.658C1170.12 316.193 1171.14 314.582 1171.93 312.824L1186.57 327.546C1184.72 330.183 1182.57 332.551 1180.13 334.65C1177.74 336.75 1175.12 338.532 1172.29 339.997C1169.51 341.462 1166.55 342.561 1163.43 343.293C1160.35 344.074 1157.18 344.465 1153.91 344.465C1148.39 344.465 1143.19 343.439 1138.31 341.389C1133.47 339.338 1129.23 336.481 1125.56 332.819C1121.95 329.157 1119.09 324.812 1116.99 319.782C1114.89 314.704 1113.84 309.138 1113.84 303.083C1113.84 296.882 1114.89 291.218 1116.99 286.091C1119.09 280.964 1121.95 276.594 1125.56 272.98C1129.23 269.367 1133.47 266.56 1138.31 264.558C1143.19 262.556 1148.39 261.555 1153.91 261.555C1157.18 261.555 1160.38 261.945 1163.5 262.727C1166.63 263.508 1169.58 264.631 1172.37 266.096C1175.2 267.561 1177.83 269.367 1180.28 271.516C1182.72 273.615 1184.87 275.983 1186.72 278.62L1149.22 323.811ZM1159.47 282.575C1158.55 282.233 1157.62 282.014 1156.69 281.916C1155.81 281.818 1154.88 281.77 1153.91 281.77C1151.17 281.77 1148.59 282.282 1146.14 283.308C1143.75 284.284 1141.65 285.7 1139.85 287.556C1138.09 289.411 1136.7 291.657 1135.67 294.294C1134.65 296.882 1134.13 299.812 1134.13 303.083C1134.13 303.815 1134.16 304.646 1134.21 305.573C1134.3 306.501 1134.43 307.453 1134.57 308.43C1134.77 309.357 1134.99 310.261 1135.23 311.14C1135.48 312.019 1135.79 312.8 1136.18 313.483L1159.47 282.575ZM1216.82 343H1196.83V264.558H1201.66L1208.25 273.859C1211.48 270.93 1215.14 268.684 1219.24 267.121C1223.34 265.51 1227.59 264.704 1231.98 264.704H1249.64V284.626H1231.98C1229.88 284.626 1227.91 285.017 1226.05 285.798C1224.2 286.579 1222.58 287.653 1221.22 289.021C1219.85 290.388 1218.78 291.999 1218 293.854C1217.21 295.71 1216.82 297.688 1216.82 299.787V343ZM1281.2 343L1251.32 264.558H1274.1L1291.24 313.483L1308.3 264.558H1331.15L1301.27 343H1281.2ZM1367.63 323.811C1368.41 324.055 1369.19 324.226 1369.97 324.323C1370.75 324.372 1371.54 324.396 1372.32 324.396C1374.27 324.396 1376.15 324.128 1377.96 323.591C1379.76 323.054 1381.45 322.297 1383.01 321.32C1384.62 320.295 1386.04 319.074 1387.26 317.658C1388.53 316.193 1389.55 314.582 1390.33 312.824L1404.98 327.546C1403.13 330.183 1400.98 332.551 1398.54 334.65C1396.14 336.75 1393.53 338.532 1390.7 339.997C1387.92 341.462 1384.96 342.561 1381.84 343.293C1378.76 344.074 1375.59 344.465 1372.32 344.465C1366.8 344.465 1361.6 343.439 1356.72 341.389C1351.88 339.338 1347.63 336.481 1343.97 332.819C1340.36 329.157 1337.5 324.812 1335.4 319.782C1333.3 314.704 1332.25 309.138 1332.25 303.083C1332.25 296.882 1333.3 291.218 1335.4 286.091C1337.5 280.964 1340.36 276.594 1343.97 272.98C1347.63 269.367 1351.88 266.56 1356.72 264.558C1361.6 262.556 1366.8 261.555 1372.32 261.555C1375.59 261.555 1378.79 261.945 1381.91 262.727C1385.04 263.508 1387.99 264.631 1390.77 266.096C1393.61 267.561 1396.24 269.367 1398.68 271.516C1401.12 273.615 1403.27 275.983 1405.13 278.62L1367.63 323.811ZM1377.88 282.575C1376.96 282.233 1376.03 282.014 1375.1 281.916C1374.22 281.818 1373.29 281.77 1372.32 281.77C1369.58 281.77 1366.99 282.282 1364.55 283.308C1362.16 284.284 1360.06 285.7 1358.25 287.556C1356.5 289.411 1355.1 291.657 1354.08 294.294C1353.05 296.882 1352.54 299.812 1352.54 303.083C1352.54 303.815 1352.57 304.646 1352.61 305.573C1352.71 306.501 1352.83 307.453 1352.98 308.43C1353.18 309.357 1353.4 310.261 1353.64 311.14C1353.88 312.019 1354.2 312.8 1354.59 313.483L1377.88 282.575Z" fill="url(#paint1_linear_1_2)"/>
</g>
<defs>
<filter id="filter0_d_1_2" x="123.368" y="192.852" width="153.264" height="140.231" filterUnits="userSpaceOnUse" color-interpolation-filters="sRGB">
<feFlood flood-opacity="0" result="BackgroundImageFix"/>
<feColorMatrix in="SourceAlpha" type="matrix" values="0 0 0 0 0 0 0 0 0 0 0 0 0 0 0 0 0 0 127 0" result="hardAlpha"/>
<feOffset dy="4"/>
<feGaussianBlur stdDeviation="2"/>
<feComposite in2="hardAlpha" operator="out"/>
<feColorMatrix type="matrix" values="0 0 0 0 0 0 0 0 0 0 0 0 0 0 0 0 0 0 0.25 0"/>
<feBlend mode="normal" in2="BackgroundImageFix" result="effect1_dropShadow_1_2"/>
<feBlend mode="normal" in="SourceGraphic" in2="effect1_dropShadow_1_2" result="shape"/>
</filter>
<linearGradient id="paint0_linear_1_2" x1="200" y1="75.8333" x2="200" y2="367.5" gradientUnits="userSpaceOnUse">
<stop stop-color="#4C40EC"/>
<stop offset="1" stop-color="#BE8DEF" stop-opacity="0.927083"/>
</linearGradient>
<linearGradient id="paint1_linear_1_2" x1="898" y1="195" x2="898" y2="381" gradientUnits="userSpaceOnUse">
<stop stop-color="#2A0F45"/>
<stop offset="1" stop-color="#736E77" stop-opacity="0.927083"/>
</linearGradient>
<clipPath id="clip0_1_2">
<rect width="1521" height="391" fill="white"/>
</clipPath>
</defs>
</svg>
